<?xml version="1.0" standalone="no"?>
<!DOCTYPE svg PUBLIC "-//W3C//DTD SVG 20010904//EN"
 "http://www.w3.org/TR/2001/REC-SVG-20010904/DTD/svg10.dtd">
<svg version="1.0" xmlns="http://www.w3.org/2000/svg"
 width="512.000000pt" height="512.000000pt" viewBox="0 0 512.000000 512.000000"
 preserveAspectRatio="xMidYMid meet">
<metadata>
Created by potrace 1.15, written by Peter Selinger 2001-2017
</metadata>
<g transform="translate(0.000000,512.000000) scale(0.100000,-0.100000)"
fill="#000000" stroke="none">
<path d="M2077 4363 c-20 -19 -3 -68 47 -142 30 -44 60 -98 67 -119 11 -37 9
-46 -36 -153 -86 -208 -117 -306 -122 -393 -9 -139 32 -252 122 -335 l45 -41
-43 0 c-86 0 -361 -21 -475 -36 -228 -29 -392 -74 -463 -126 -76 -55 -75 15
-25 -1049 41 -856 47 -955 64 -988 80 -154 541 -262 1062 -248 118 4 251 11
295 17 344 45 571 139 614 253 6 16 11 72 11 125 0 133 3 142 50 142 56 0 205
46 285 88 102 54 246 201 302 307 66 127 87 215 87 375 0 145 -14 222 -61 329
-97 219 -305 388 -537 435 l-61 13 -5 69 c-3 42 -12 81 -22 96 -38 58 -257
132 -468 158 -135 16 -145 19 -131 33 7 7 11 65 11 173 0 90 5 175 10 190 6
15 39 57 74 94 74 79 91 126 84 225 -4 45 -14 78 -32 110 -46 78 -153 140
-232 133 -36 -3 -39 -6 -42 -36 -3 -25 5 -44 32 -81 20 -27 45 -70 56 -95 24
-53 21 -62 -54 -161 -52 -68 -76 -134 -76 -211 0 -107 48 -290 89 -337 15 -18
14 -19 -19 -13 -19 3 -102 8 -184 12 -82 3 -143 10 -136 14 16 10 9 62 -20
155 -14 46 -22 99 -23 157 l-2 86 83 164 c62 121 85 179 93 226 23 151 -37
268 -185 361 -47 29 -112 42 -129 24z m527 -1373 c154 -13 297 -35 366 -56
l55 -17 -58 -18 c-181 -57 -672 -84 -1052 -59 -247 17 -481 58 -458 81 21 21
232 55 448 72 98 8 591 6 699 -3z m-1087 -280 c252 -50 408 -64 698 -64 310 1
570 26 833 80 l32 7 0 -42 c0 -72 10 -81 93 -81 259 -1 491 -191 553 -456 52
-221 -78 -483 -295 -598 -92 -48 -167 -66 -278 -66 -78 0 -94 -3 -101 -17 -5
-10 -12 -101 -14 -201 -4 -143 -8 -186 -19 -193 -31 -20 -179 -73 -266 -95
-310 -78 -709 -78 -1010 1 -102 27 -260 89 -282 111 -12 11 -23 171 -57 806
-48 884 -46 838 -39 838 3 0 71 -13 152 -30z"/>
<path d="M3091 2516 c-13 -15 -15 -52 -32 -575 -9 -272 -8 -326 3 -338 8 -7
43 -16 79 -19 316 -28 560 236 511 553 -37 237 -222 393 -468 393 -58 0 -85
-4 -93 -14z m285 -302 c85 -103 82 -217 -8 -319 -17 -20 -48 -45 -68 -55 l-37
-19 4 132 c2 73 6 178 9 234 l6 103 30 -18 c17 -9 45 -35 64 -58z"/>
<path d="M1697 4183 c-15 -14 -6 -64 23 -131 16 -39 37 -97 45 -128 18 -69 12
-81 -62 -141 -100 -80 -158 -146 -172 -196 -19 -65 -9 -155 24 -222 49 -101
196 -208 243 -178 27 16 25 55 -4 98 -45 66 -76 143 -81 203 -5 52 -3 61 21
89 15 17 55 50 90 71 69 44 113 90 122 128 4 14 4 60 2 102 -6 99 -40 171
-117 252 -48 51 -62 60 -92 60 -20 0 -39 -3 -42 -7z"/>
</g>
</svg>
